<svg xmlns="http://www.w3.org/2000/svg" width="250" height="100" viewBox="0 0 250 100">
  <g fill="white" fill-opacity="0.04">
    <!-- Row 1: T P T S T R T P T T -->
    <path d="M6 2l4 4l-3 11l5 5l5-5l-3-11l4-4Z" transform="translate(2,5)"/>
    <path d="M2 4h12v4H2z M10 8h4v7h-2v-5h-2z" transform="translate(27,3)"/>
    <path d="M6 2l4 4l-3 11l5 5l5-5l-3-11l4-4Z" transform="translate(52,5)"/>
    <polygon points="10,2 12.5,8 20,8 14,12 16.5,20 10,15 3.5,20 6,12 0,8 7.5,8" transform="translate(72,2) scale(0.8)"/>
    <path d="M6 2l4 4l-3 11l5 5l5-5l-3-11l4-4Z" transform="translate(102,5)"/>
    <circle cx="135" cy="14" r="7" fill="none" stroke="white" stroke-opacity="0.04" stroke-width="2"/>
    <path d="M6 2l4 4l-3 11l5 5l5-5l-3-11l4-4Z" transform="translate(152,5)"/>
    <path d="M2 4h12v4H2z M10 8h4v7h-2v-5h-2z" transform="translate(177,3)"/>
    <path d="M6 2l4 4l-3 11l5 5l5-5l-3-11l4-4Z" transform="translate(202,5)"/>
    <path d="M6 2l4 4l-3 11l5 5l5-5l-3-11l4-4Z" transform="translate(227,5)"/>

    <!-- Row 2: R T T P T S T T P T -->
    <circle cx="10" cy="47" r="7" fill="none" stroke="white" stroke-opacity="0.04" stroke-width="2"/>
    <path d="M6 2l4 4l-3 11l5 5l5-5l-3-11l4-4Z" transform="translate(27,38)"/>
    <path d="M6 2l4 4l-3 11l5 5l5-5l-3-11l4-4Z" transform="translate(52,38)"/>
    <path d="M2 4h12v4H2z M10 8h4v7h-2v-5h-2z" transform="translate(77,36)"/>
    <path d="M6 2l4 4l-3 11l5 5l5-5l-3-11l4-4Z" transform="translate(102,38)"/>
    <polygon points="10,2 12.5,8 20,8 14,12 16.5,20 10,15 3.5,20 6,12 0,8 7.5,8" transform="translate(122,35) scale(0.8)"/>
    <path d="M6 2l4 4l-3 11l5 5l5-5l-3-11l4-4Z" transform="translate(152,38)"/>
    <path d="M6 2l4 4l-3 11l5 5l5-5l-3-11l4-4Z" transform="translate(177,38)"/>
    <path d="M2 4h12v4H2z M10 8h4v7h-2v-5h-2z" transform="translate(202,36)"/>
    <path d="M6 2l4 4l-3 11l5 5l5-5l-3-11l4-4Z" transform="translate(227,38)"/>

    <!-- Row 3: T S T R T T P T T P -->
    <path d="M6 2l4 4l-3 11l5 5l5-5l-3-11l4-4Z" transform="translate(2,71)"/>
    <polygon points="10,2 12.5,8 20,8 14,12 16.5,20 10,15 3.5,20 6,12 0,8 7.5,8" transform="translate(22,68) scale(0.8)"/>
    <path d="M6 2l4 4l-3 11l5 5l5-5l-3-11l4-4Z" transform="translate(52,71)"/>
    <circle cx="85" cy="80" r="7" fill="none" stroke="white" stroke-opacity="0.04" stroke-width="2"/>
    <path d="M6 2l4 4l-3 11l5 5l5-5l-3-11l4-4Z" transform="translate(102,71)"/>
    <path d="M6 2l4 4l-3 11l5 5l5-5l-3-11l4-4Z" transform="translate(127,71)"/>
    <path d="M2 4h12v4H2z M10 8h4v7h-2v-5h-2z" transform="translate(152,69)"/>
    <path d="M6 2l4 4l-3 11l5 5l5-5l-3-11l4-4Z" transform="translate(177,71)"/>
    <path d="M6 2l4 4l-3 11l5 5l5-5l-3-11l4-4Z" transform="translate(202,71)"/>
    <path d="M2 4h12v4H2z M10 8h4v7h-2v-5h-2z" transform="translate(227,69)"/>
  </g>
</svg>
